<?xml version="1.0" encoding="utf-8"?>
<!-- Generator: Adobe Illustrator 25.3.1, SVG Export Plug-In . SVG Version: 6.00 Build 0)  -->
<svg version="1.1" id="Layer_1" xmlns="http://www.w3.org/2000/svg" xmlns:xlink="http://www.w3.org/1999/xlink" x="0px" y="0px"
	 viewBox="0 0 150 150" style="enable-background:new 0 0 150 150;" xml:space="preserve">
<style type="text/css">
	.st0{fill:none;}
	.st1{fill:#231F20;}
	.st2{font-family:'Billabong';}
	.st3{font-size:12px;}
	.st4{fill:url(#SVGID_1_);}
	.st5{fill:url(#SVGID_2_);}
	.st6{fill:#FFFFFF;}
</style>
<rect x="60" y="26" class="st0" width="59" height="12"/>
<text transform="matrix(1 0 0 1 60.0002 34.0757)" class="st1 st2 st3">Folge uns jetzt!</text>
<radialGradient id="SVGID_1_" cx="343.3165" cy="-267.7619" r="65" gradientTransform="matrix(0 -0.5136 -0.4817 0 -97.9671 226.6191)" gradientUnits="userSpaceOnUse">
	<stop  offset="0" style="stop-color:#FFDD55"/>
	<stop  offset="0.1" style="stop-color:#FFDD55"/>
	<stop  offset="0.5" style="stop-color:#FF543E"/>
	<stop  offset="1" style="stop-color:#C837AB"/>
</radialGradient>
<path class="st4" d="M38.99,14c-7.09,0-9.16,0.01-9.57,0.04c-1.46,0.12-2.36,0.35-3.35,0.83c-0.76,0.37-1.36,0.81-1.95,1.42
	c-1.08,1.11-1.73,2.47-1.97,4.1c-0.11,0.79-0.15,0.95-0.16,4.97c0,1.34,0,3.11,0,5.47c0,7.03,0.01,9.08,0.04,9.48
	c0.12,1.4,0.34,2.29,0.81,3.25c0.9,1.85,2.62,3.24,4.64,3.76c0.7,0.18,1.47,0.28,2.47,0.32c0.42,0.02,4.71,0.03,9,0.03
	s8.58-0.01,8.99-0.03c1.15-0.05,1.82-0.14,2.56-0.33c2.04-0.52,3.72-1.89,4.64-3.77c0.46-0.94,0.69-1.86,0.8-3.19
	c0.02-0.29,0.03-4.92,0.03-9.54c0-4.62-0.01-9.24-0.03-9.53c-0.11-1.35-0.34-2.26-0.82-3.22c-0.39-0.79-0.82-1.37-1.45-1.98
	c-1.12-1.06-2.5-1.71-4.14-1.95c-0.79-0.11-0.95-0.15-5.01-0.15H38.99z"/>
<radialGradient id="SVGID_2_" cx="-319.7758" cy="-381.7257" r="65" gradientTransform="matrix(0.0454 0.2251 0.9358 -0.1859 388.0521 17.471)" gradientUnits="userSpaceOnUse">
	<stop  offset="0" style="stop-color:#3771C8"/>
	<stop  offset="0.128" style="stop-color:#3771C8"/>
	<stop  offset="1" style="stop-color:#6600FF;stop-opacity:0"/>
</radialGradient>
<path class="st5" d="M38.99,14c-7.09,0-9.16,0.01-9.57,0.04c-1.46,0.12-2.36,0.35-3.35,0.83c-0.76,0.37-1.36,0.81-1.95,1.42
	c-1.08,1.11-1.73,2.47-1.97,4.1c-0.11,0.79-0.15,0.95-0.16,4.97c0,1.34,0,3.11,0,5.47c0,7.03,0.01,9.08,0.04,9.48
	c0.12,1.4,0.34,2.29,0.81,3.25c0.9,1.85,2.62,3.24,4.64,3.76c0.7,0.18,1.47,0.28,2.47,0.32c0.42,0.02,4.71,0.03,9,0.03
	s8.58-0.01,8.99-0.03c1.15-0.05,1.82-0.14,2.56-0.33c2.04-0.52,3.72-1.89,4.64-3.77c0.46-0.94,0.69-1.86,0.8-3.19
	c0.02-0.29,0.03-4.92,0.03-9.54c0-4.62-0.01-9.24-0.03-9.53c-0.11-1.35-0.34-2.26-0.82-3.22c-0.39-0.79-0.82-1.37-1.45-1.98
	c-1.12-1.06-2.5-1.71-4.14-1.95c-0.79-0.11-0.95-0.15-5.01-0.15H38.99z"/>
<path class="st6" d="M38.98,18.41c-3.41,0-3.83,0.01-5.17,0.08c-1.34,0.06-2.25,0.27-3.04,0.58c-0.82,0.32-1.52,0.74-2.22,1.43
	c-0.7,0.69-1.13,1.39-1.45,2.2c-0.31,0.79-0.52,1.7-0.58,3.02c-0.06,1.33-0.08,1.75-0.08,5.13s0.02,3.8,0.08,5.13
	c0.06,1.32,0.27,2.23,0.58,3.02c0.32,0.82,0.75,1.51,1.45,2.2c0.7,0.69,1.4,1.12,2.22,1.44c0.8,0.31,1.71,0.52,3.04,0.58
	c1.34,0.06,1.76,0.08,5.17,0.08c3.41,0,3.83-0.01,5.17-0.08c1.34-0.06,2.25-0.27,3.05-0.58c0.82-0.32,1.52-0.74,2.22-1.44
	c0.7-0.69,1.13-1.39,1.45-2.2c0.31-0.79,0.52-1.7,0.58-3.02c0.06-1.33,0.08-1.75,0.08-5.13s-0.02-3.8-0.08-5.13
	c-0.06-1.32-0.27-2.23-0.58-3.02c-0.32-0.82-0.75-1.51-1.45-2.2c-0.7-0.69-1.4-1.12-2.22-1.43c-0.8-0.31-1.71-0.52-3.05-0.58
	C42.81,18.42,42.39,18.41,38.98,18.41L38.98,18.41z M37.86,20.65c0.33,0,0.71,0,1.12,0c3.35,0,3.75,0.01,5.07,0.07
	c1.22,0.06,1.89,0.26,2.33,0.43c0.59,0.23,1,0.49,1.44,0.93c0.44,0.44,0.71,0.85,0.94,1.43c0.17,0.44,0.38,1.1,0.43,2.31
	c0.06,1.31,0.07,1.71,0.07,5.02s-0.01,3.71-0.07,5.02c-0.06,1.21-0.26,1.87-0.43,2.31c-0.23,0.58-0.5,0.99-0.94,1.43
	c-0.44,0.44-0.86,0.7-1.44,0.93c-0.44,0.17-1.11,0.37-2.33,0.43c-1.32,0.06-1.72,0.07-5.07,0.07c-3.35,0-3.75-0.01-5.07-0.07
	c-1.22-0.06-1.89-0.26-2.33-0.43c-0.59-0.23-1-0.49-1.44-0.93s-0.71-0.85-0.94-1.43c-0.17-0.44-0.38-1.1-0.43-2.31
	c-0.06-1.31-0.07-1.71-0.07-5.03s0.01-3.71,0.07-5.02c0.06-1.21,0.26-1.87,0.43-2.31c0.23-0.58,0.5-1,0.94-1.43
	c0.44-0.44,0.86-0.7,1.44-0.93c0.44-0.17,1.11-0.37,2.33-0.43C35.07,20.66,35.52,20.65,37.86,20.65L37.86,20.65z M45.68,22.71
	c-0.83,0-1.5,0.67-1.5,1.49c0,0.82,0.67,1.49,1.5,1.49c0.83,0,1.5-0.67,1.5-1.49C47.18,23.38,46.51,22.71,45.68,22.71L45.68,22.71z
	 M38.98,24.46c-3.56,0-6.44,2.86-6.44,6.39s2.88,6.39,6.44,6.39c3.56,0,6.44-2.86,6.44-6.39S42.54,24.46,38.98,24.46L38.98,24.46z
	 M38.98,26.7c2.31,0,4.18,1.86,4.18,4.15c0,2.29-1.87,4.15-4.18,4.15c-2.31,0-4.18-1.86-4.18-4.15C34.8,28.55,36.67,26.7,38.98,26.7
	z"/>
</svg>
